<mxfile host="app.diagrams.net" modified="2022-07-05T15:03:48.947Z" agent="5.0 (Windows)" etag="_DwM7vZmraBd06TAYyKm" version="20.0.4" type="github">
  <diagram id="kfOT8hEyOMGVeFGY6LPV" name="Page-1">
    <mxGraphModel dx="1207" dy="764" grid="1" gridSize="10" guides="1" tooltips="1" connect="1" arrows="1" fold="1" page="1" pageScale="1" pageWidth="850" pageHeight="1100" math="0" shadow="0">
      <root>
        <mxCell id="0" />
        <mxCell id="1" parent="0" />
        <mxCell id="-GcAtBjWmZyuN-Dd3xA9-8" style="edgeStyle=orthogonalEdgeStyle;rounded=0;orthogonalLoop=1;jettySize=auto;html=1;exitX=0.75;exitY=0.1;exitDx=0;exitDy=0;exitPerimeter=0;entryX=0.25;entryY=0.1;entryDx=0;entryDy=0;entryPerimeter=0;" edge="1" parent="1" source="-GcAtBjWmZyuN-Dd3xA9-1" target="-GcAtBjWmZyuN-Dd3xA9-7">
          <mxGeometry relative="1" as="geometry" />
        </mxCell>
        <mxCell id="-GcAtBjWmZyuN-Dd3xA9-1" value="Actor" style="shape=umlActor;verticalLabelPosition=bottom;verticalAlign=top;html=1;outlineConnect=0;" vertex="1" parent="1">
          <mxGeometry x="75" y="190" width="130" height="100" as="geometry" />
        </mxCell>
        <mxCell id="-GcAtBjWmZyuN-Dd3xA9-2" value="Marketor" style="text;html=1;align=center;verticalAlign=middle;resizable=0;points=[];autosize=1;strokeColor=none;fillColor=none;" vertex="1" parent="1">
          <mxGeometry x="105" y="300" width="70" height="30" as="geometry" />
        </mxCell>
        <mxCell id="-GcAtBjWmZyuN-Dd3xA9-7" value="Client" style="shape=umlActor;verticalLabelPosition=bottom;verticalAlign=top;html=1;outlineConnect=0;" vertex="1" parent="1">
          <mxGeometry x="360" y="80" width="50" height="110" as="geometry" />
        </mxCell>
        <mxCell id="-GcAtBjWmZyuN-Dd3xA9-26" style="edgeStyle=orthogonalEdgeStyle;rounded=0;orthogonalLoop=1;jettySize=auto;html=1;exitX=0;exitY=0.25;exitDx=0;exitDy=0;entryX=1;entryY=0.5;entryDx=0;entryDy=0;" edge="1" parent="1" source="-GcAtBjWmZyuN-Dd3xA9-9" target="-GcAtBjWmZyuN-Dd3xA9-21">
          <mxGeometry relative="1" as="geometry" />
        </mxCell>
        <mxCell id="-GcAtBjWmZyuN-Dd3xA9-9" value="" style="rounded=0;whiteSpace=wrap;html=1;" vertex="1" parent="1">
          <mxGeometry x="650" y="480" width="130" height="110" as="geometry" />
        </mxCell>
        <mxCell id="-GcAtBjWmZyuN-Dd3xA9-13" value="&lt;h1&gt;Language&lt;/h1&gt;&lt;p&gt;Lorem ipsum dolor sit amet, consectetur adipisicing elit, sed do eiusmod tempor incididunt ut labore et dolore magna aliqua.&lt;/p&gt;" style="text;html=1;strokeColor=none;fillColor=none;spacing=5;spacingTop=-20;whiteSpace=wrap;overflow=hidden;rounded=0;" vertex="1" parent="1">
          <mxGeometry x="90" y="500" width="190" height="120" as="geometry" />
        </mxCell>
        <mxCell id="-GcAtBjWmZyuN-Dd3xA9-14" value="Front" style="text;html=1;strokeColor=none;fillColor=none;align=center;verticalAlign=middle;whiteSpace=wrap;rounded=0;" vertex="1" parent="1">
          <mxGeometry x="680" y="480" width="60" height="30" as="geometry" />
        </mxCell>
        <mxCell id="-GcAtBjWmZyuN-Dd3xA9-15" value="" style="rounded=0;whiteSpace=wrap;html=1;" vertex="1" parent="1">
          <mxGeometry x="650" y="360" width="130" height="110" as="geometry" />
        </mxCell>
        <mxCell id="-GcAtBjWmZyuN-Dd3xA9-28" style="edgeStyle=orthogonalEdgeStyle;rounded=0;orthogonalLoop=1;jettySize=auto;html=1;exitX=0;exitY=0;exitDx=0;exitDy=0;entryX=0.145;entryY=1;entryDx=0;entryDy=-4.35;entryPerimeter=0;" edge="1" parent="1" source="-GcAtBjWmZyuN-Dd3xA9-16" target="-GcAtBjWmZyuN-Dd3xA9-17">
          <mxGeometry relative="1" as="geometry" />
        </mxCell>
        <mxCell id="-GcAtBjWmZyuN-Dd3xA9-16" value="Back" style="text;html=1;strokeColor=none;fillColor=none;align=center;verticalAlign=middle;whiteSpace=wrap;rounded=0;" vertex="1" parent="1">
          <mxGeometry x="680" y="360" width="60" height="30" as="geometry" />
        </mxCell>
        <mxCell id="-GcAtBjWmZyuN-Dd3xA9-17" value="" style="shape=cylinder3;whiteSpace=wrap;html=1;boundedLbl=1;backgroundOutline=1;size=15;" vertex="1" parent="1">
          <mxGeometry x="685" y="210" width="60" height="80" as="geometry" />
        </mxCell>
        <mxCell id="-GcAtBjWmZyuN-Dd3xA9-25" style="edgeStyle=orthogonalEdgeStyle;rounded=0;orthogonalLoop=1;jettySize=auto;html=1;exitX=1;exitY=0.75;exitDx=0;exitDy=0;entryX=1;entryY=0.664;entryDx=0;entryDy=0;entryPerimeter=0;" edge="1" parent="1" source="-GcAtBjWmZyuN-Dd3xA9-18" target="-GcAtBjWmZyuN-Dd3xA9-9">
          <mxGeometry relative="1" as="geometry" />
        </mxCell>
        <mxCell id="-GcAtBjWmZyuN-Dd3xA9-29" style="edgeStyle=orthogonalEdgeStyle;rounded=0;orthogonalLoop=1;jettySize=auto;html=1;exitX=0;exitY=0.25;exitDx=0;exitDy=0;entryX=1;entryY=0;entryDx=0;entryDy=0;" edge="1" parent="1" source="-GcAtBjWmZyuN-Dd3xA9-18" target="-GcAtBjWmZyuN-Dd3xA9-21">
          <mxGeometry relative="1" as="geometry" />
        </mxCell>
        <mxCell id="-GcAtBjWmZyuN-Dd3xA9-18" value="DB" style="text;html=1;strokeColor=none;fillColor=none;align=center;verticalAlign=middle;whiteSpace=wrap;rounded=0;" vertex="1" parent="1">
          <mxGeometry x="685" y="250" width="60" height="30" as="geometry" />
        </mxCell>
        <mxCell id="-GcAtBjWmZyuN-Dd3xA9-23" style="edgeStyle=orthogonalEdgeStyle;rounded=0;orthogonalLoop=1;jettySize=auto;html=1;exitX=0.25;exitY=0;exitDx=0;exitDy=0;" edge="1" parent="1" source="-GcAtBjWmZyuN-Dd3xA9-19">
          <mxGeometry relative="1" as="geometry">
            <mxPoint x="470" y="440" as="targetPoint" />
          </mxGeometry>
        </mxCell>
        <mxCell id="-GcAtBjWmZyuN-Dd3xA9-19" value="" style="rounded=0;whiteSpace=wrap;html=1;" vertex="1" parent="1">
          <mxGeometry x="500" y="540" width="120" height="60" as="geometry" />
        </mxCell>
        <mxCell id="-GcAtBjWmZyuN-Dd3xA9-20" value="User" style="shape=umlActor;verticalLabelPosition=bottom;verticalAlign=top;html=1;outlineConnect=0;" vertex="1" parent="1">
          <mxGeometry x="545" y="570" width="30" height="60" as="geometry" />
        </mxCell>
        <mxCell id="-GcAtBjWmZyuN-Dd3xA9-24" style="edgeStyle=orthogonalEdgeStyle;rounded=0;orthogonalLoop=1;jettySize=auto;html=1;exitX=0.5;exitY=0;exitDx=0;exitDy=0;entryX=0;entryY=0;entryDx=0;entryDy=0;" edge="1" parent="1" source="-GcAtBjWmZyuN-Dd3xA9-21" target="-GcAtBjWmZyuN-Dd3xA9-18">
          <mxGeometry relative="1" as="geometry" />
        </mxCell>
        <mxCell id="-GcAtBjWmZyuN-Dd3xA9-27" style="edgeStyle=orthogonalEdgeStyle;rounded=0;orthogonalLoop=1;jettySize=auto;html=1;exitX=0.5;exitY=1;exitDx=0;exitDy=0;entryX=0.425;entryY=-0.017;entryDx=0;entryDy=0;entryPerimeter=0;" edge="1" parent="1" source="-GcAtBjWmZyuN-Dd3xA9-21" target="-GcAtBjWmZyuN-Dd3xA9-19">
          <mxGeometry relative="1" as="geometry" />
        </mxCell>
        <mxCell id="-GcAtBjWmZyuN-Dd3xA9-21" value="" style="ellipse;whiteSpace=wrap;html=1;aspect=fixed;" vertex="1" parent="1">
          <mxGeometry x="420" y="310" width="120" height="120" as="geometry" />
        </mxCell>
        <mxCell id="-GcAtBjWmZyuN-Dd3xA9-22" value="Internet" style="text;html=1;strokeColor=none;fillColor=none;align=center;verticalAlign=middle;whiteSpace=wrap;rounded=0;" vertex="1" parent="1">
          <mxGeometry x="450" y="355" width="60" height="30" as="geometry" />
        </mxCell>
      </root>
    </mxGraphModel>
  </diagram>
</mxfile>
